<?xml version="1.0" encoding="UTF-8" standalone="no"?>
<!-- Created with Inkscape (http://www.inkscape.org/) -->

<svg
   xmlns:dc="http://purl.org/dc/elements/1.1/"
   xmlns:cc="http://creativecommons.org/ns#"
   xmlns:rdf="http://www.w3.org/1999/02/22-rdf-syntax-ns#"
   xmlns:svg="http://www.w3.org/2000/svg"
   xmlns="http://www.w3.org/2000/svg"
   xmlns:sodipodi="http://sodipodi.sourceforge.net/DTD/sodipodi-0.dtd"
   xmlns:inkscape="http://www.inkscape.org/namespaces/inkscape"
   width="195.8022mm"
   height="77.899345mm"
   viewBox="0 0 195.8022 77.899345"
   version="1.1"
   id="svg8"
   inkscape:version="0.92.3 (2405546, 2018-03-11)"
   sodipodi:docname="snt_2017_stuttgart.svg"
   inkscape:export-filename="/home/v0tti/Downloads/dokuwiki-128.png"
   inkscape:export-xdpi="41.770725"
   inkscape:export-ydpi="41.770725">
  <defs
     id="defs2" />
  <sodipodi:namedview
     id="base"
     pagecolor="#ffffff"
     bordercolor="#666666"
     borderopacity="1.0"
     inkscape:pageopacity="0.0"
     inkscape:pageshadow="2"
     inkscape:zoom="3.6203867"
     inkscape:cx="303.80757"
     inkscape:cy="99.078704"
     inkscape:document-units="mm"
     inkscape:current-layer="layer1"
     showgrid="false"
     inkscape:window-width="2944"
     inkscape:window-height="1530"
     inkscape:window-x="0"
     inkscape:window-y="60"
     inkscape:window-maximized="1"
     inkscape:snap-global="false"
     inkscape:snap-smooth-nodes="true"
     fit-margin-top="0"
     fit-margin-left="0"
     fit-margin-right="0"
     fit-margin-bottom="0" />
  <metadata
     id="metadata5">
    <rdf:RDF>
      <cc:Work
         rdf:about="">
        <dc:format>image/svg+xml</dc:format>
        <dc:type
           rdf:resource="http://purl.org/dc/dcmitype/StillImage" />
        <dc:title></dc:title>
      </cc:Work>
    </rdf:RDF>
  </metadata>
  <g
     inkscape:label="Layer 1"
     inkscape:groupmode="layer"
     id="layer1"
     style="display:inline"
     transform="translate(1197.59,-142.06173)">
    <text
       id="text5563"
       y="22.353827"
       x="-149.67093"
       style="font-style:normal;font-weight:normal;font-size:10.58333302px;line-height:6.61458302px;font-family:sans-serif;letter-spacing:0px;word-spacing:0px;fill:#000000;fill-opacity:1;stroke:none;stroke-width:0.26458332px;stroke-linecap:butt;stroke-linejoin:miter;stroke-opacity:1"
       xml:space="preserve"><tspan
         style="stroke-width:0.26458332px"
         y="28.579519"
         x="-149.67093"
         id="tspan5561"
         sodipodi:role="line" /></text>
    <g
       inkscape:groupmode="layer"
       id="layer4"
       inkscape:label="Layer 2" />
    <g
       inkscape:groupmode="layer"
       id="layer5"
       inkscape:label="Layer 3" />
    <path
       inkscape:connector-curvature="0"
       id="path4760-3"
       d="m -1130.5081,219.72435 c -5.8907,-0.27542 -13.5803,-0.80413 -13.8245,-0.95053 -0.1091,-0.0654 -0.1984,-1.97154 -0.1984,-4.23583 v -4.1174 l 2.4474,0.17135 c 6.0073,0.42059 12.3527,0.67556 16.9291,0.68025 l 4.9568,0.005 0.8641,-0.77139 0.864,-0.77139 0.087,-3.46195 0.087,-3.46194 -8.0246,-0.009 c -8.4744,-0.01 -10.9636,-0.24569 -13.2466,-1.25557 -2.5259,-1.11734 -4.1524,-3.28981 -4.9955,-6.6727 -0.4847,-1.9445 -0.4856,-8.89754 0,-10.84792 0.8628,-3.47614 2.7524,-5.74576 5.7027,-6.84959 2.4494,-0.91642 5.0828,-1.08791 16.7063,-1.08791 h 11.2256 v 4.36563 4.36562 h -10.0627 c -10.9412,0 -11.4012,0.0546 -12.3245,1.46381 -0.5812,0.88695 -0.6664,4.09339 -0.1418,5.33631 0.7435,1.76152 0.8577,1.78349 10.0936,1.94078 7.7542,0.13206 8.4443,0.18271 9.913,0.72772 2.7366,1.01545 4.6974,3.11027 5.5876,5.96957 0.5681,1.82459 0.8037,8.39296 0.3951,11.0127 -0.7534,4.83092 -3.1494,7.47484 -7.6482,8.43965 -1.5366,0.32954 -8.5111,0.33605 -15.3913,0.0144 z"
       style="display:inline;fill:#ffffff;fill-opacity:0.99125367;stroke-width:0.26458332" />
    <path
       inkscape:connector-curvature="0"
       id="path4758-6"
       d="m -1097.4352,197.78403 v -21.69584 l 5.887,0.003 5.887,0.003 7.2505,12.70687 c 3.9878,6.98878 7.3513,12.76916 7.4745,12.84528 0.1231,0.0761 0.2239,-5.6456 0.2239,-12.7149 v -12.85327 l 5.4901,0.0715 5.4901,0.0715 0.068,21.62969 0.068,21.62969 h -5.9189 -5.919 l -7.3779,-12.89844 -7.3779,-12.89844 -0.069,12.89844 -0.069,12.89844 h -5.5537 -5.5537 z"
       style="display:inline;fill:#ffffff;fill-opacity:1;stroke-width:0.26458332" />
    <path
       inkscape:connector-curvature="0"
       id="path4756-7"
       d="m -1037.9869,219.30869 c -0.1,-0.0999 -0.1816,-7.90083 -0.1816,-17.33543 v -17.15382 h -6.4889 -6.4888 l 0.073,-4.29948 0.073,-4.29948 h 18.5208 18.5208 l 0.073,4.29948 0.073,4.29948 h -6.4869 -6.4869 l -0.068,17.26406 -0.068,17.26407 -5.4408,0.0714 c -2.9924,0.0393 -5.5225,-0.0104 -5.6224,-0.11024 z"
       style="display:inline;fill:#ffffff;fill-opacity:1;stroke-width:0.26458332" />
    <rect
       style="display:inline;opacity:1;fill:#ffffff;fill-opacity:1;fill-rule:evenodd;stroke:#000000;stroke-width:0.15759738;stroke-linecap:round;stroke-linejoin:round;stroke-miterlimit:4;stroke-dasharray:none;stroke-opacity:1"
       id="rect5195-02-3-3"
       width="3.3358109"
       height="5.4206934"
       x="-1050.8361"
       y="287.21396"
       ry="0.0044078366"
       transform="rotate(7.7660947)" />
    <path
       sodipodi:nodetypes="csccccccccccccccccccsscc"
       inkscape:connector-curvature="0"
       id="path4754-9"
       d="m -1092.8736,142.06256 c -8.1701,0.0193 -17.2883,0.40319 -23.7428,1.08262 -8.158,0.85876 -20.1088,2.76248 -23.4818,3.74034 -0.5831,0.15442 -3.7324,0.81806 -6.0595,1.38649 -15.3286,3.8507 -28.7342,9.39695 -37.5972,15.5546 -1.2301,0.6988 -2.4953,1.86861 -3.204,2.41951 -0.8896,0.68687 -4.9742,4.56612 -6.3675,6.37687 -1.6123,2.0952 -2.9082,4.55554 -3.637,6.905 -0.879,2.83354 -0.8285,6.75137 0.1219,9.47384 3.6204,10.37092 16.677,19.82411 39.2142,28.39155 v -5.3e-4 c 2.6194,0.99575 4.8048,1.81343 4.8565,1.81643 0.052,0.003 -1.0809,-1.22524 -2.5171,-2.72955 -7.7976,-8.16702 -11.0161,-16.30554 -9.4651,-23.93291 0.9086,-4.46824 3.2831,-8.5282 7.3846,-12.62558 12.2052,-12.19299 36.8957,-20.73944 68.1359,-23.58461 7.3111,-0.66547 25.2819,-0.6645 32.4114,0.002 21.541,2.01399 39.2414,6.858 53.3136,14.58981 l 1.7197,0.94464 -1.6856,-1.62005 c -3.8709,-3.72065 -9.9882,-8.1316 -15.7789,-11.37709 -16.4063,-9.19507 -36.1331,-14.53586 -60.7198,-16.43929 -3.4396,-0.26629 -8.0001,-0.38572 -12.9021,-0.37415 z"
       style="display:inline;fill:#18bc9c;fill-opacity:1;stroke-width:0.26458332" />
  </g>
</svg>
